<svg width="140" height="44" viewBox="0 0 140 44" fill="none" xmlns="http://www.w3.org/2000/svg">
<path d="M24.3047 25.6421L20.3861 29.5461C21.4225 28.5136 22.0063 27.1142 22.0097 25.6543C22.0131 24.1943 21.4358 22.7927 20.4042 21.7561L16.5019 17.8683C15.7867 17.1427 15.2864 16.2345 15.056 15.2437C14.8257 14.2528 14.8743 13.2177 15.1964 12.2524L15.6 11.0465C15.6462 10.9112 15.7228 10.7882 15.824 10.6869C15.9973 10.5143 16.2323 10.4173 16.4774 10.4172C16.7224 10.4172 16.9574 10.5141 17.1306 10.6867L24.3061 17.8355C25.345 18.8705 25.9285 20.2745 25.9282 21.7385C25.928 23.2025 25.3439 24.6067 24.3047 25.6421Z" fill="#6942E2"/>
<path d="M20.386 29.5461L17.1171 32.8029C17.0161 32.9036 16.8923 32.9788 16.7562 33.0223C16.6415 33.061 16.5203 33.0766 16.3995 33.0684C16.2787 33.0602 16.1608 33.0283 16.0524 32.9745C15.9441 32.9207 15.8475 32.8461 15.7682 32.755C15.6889 32.6639 15.6285 32.5581 15.5904 32.4436L15.1927 31.2249C14.8696 30.2603 14.8206 29.2254 15.051 28.2345C15.2815 27.2437 15.7824 26.3355 16.4985 25.6104L20.4023 21.7543C21.4347 22.7907 22.0127 24.1925 22.0096 25.653C22.0066 27.1134 21.4227 28.5133 20.386 29.5461Z" fill="#28E7C5"/>
<path fill-rule="evenodd" clip-rule="evenodd" d="M32.7885 33.3076V10.2979H42.7135C44.1876 10.2818 45.641 10.6436 46.9343 11.3486C48.2118 12.0305 49.2823 13.0414 50.0343 14.276C50.8199 15.5615 51.2204 17.0442 51.1885 18.5491C51.2222 20.0293 50.8462 21.4902 50.1016 22.7715C49.357 24.0527 48.2727 25.1048 46.9676 25.8122C45.6633 26.5199 44.1985 26.8817 42.7135 26.863H38.3262V33.3076H32.7885ZM38.3373 22.247H42.092C42.712 22.2575 43.3244 22.1103 43.8714 21.8193C44.4068 21.5292 44.8521 21.0982 45.1587 20.5732C45.5005 19.9729 45.6707 19.2907 45.6507 18.6007C45.6713 17.9107 45.5011 17.2283 45.1587 16.6282C44.8466 16.095 44.3885 15.6614 43.8381 15.3784C43.31 15.0649 42.7067 14.8993 42.092 14.8991H38.3262L38.3373 22.247ZM53.789 33.3261V21.4064C53.789 19.8727 54.2292 18.6683 55.1097 17.7933C55.9901 16.9183 57.2108 16.4795 58.7719 16.4771H63.6845V20.6211H60.0222C59.8751 20.6207 59.7293 20.6496 59.5934 20.7059C59.4574 20.7622 59.3341 20.8449 59.2306 20.9492C59.1216 21.0491 59.0357 21.1714 58.9789 21.3076C58.922 21.4439 58.8956 21.5908 58.9014 21.7382V32.2016C58.9014 32.4949 58.7845 32.7762 58.5763 32.9837C58.3682 33.1911 58.0859 33.3076 57.7916 33.3076L53.789 33.3261ZM74.3457 33.7206C72.7112 33.7464 71.0978 33.3501 69.6625 32.5702C68.3029 31.8262 67.1647 30.7375 66.3627 29.4143C65.5634 28.048 65.1529 26.4904 65.1753 24.9089C65.1475 23.328 65.5584 21.7702 66.3627 20.4073C67.1626 19.0824 68.3014 17.9932 69.6625 17.2513C71.0907 16.4502 72.707 16.0418 74.3457 16.0678C75.974 16.0403 77.5799 16.4491 78.9956 17.2513C80.3503 17.9888 81.4782 19.0798 82.2584 20.4073C83.0831 21.7631 83.5063 23.3237 83.4791 24.9089C83.4925 26.4698 83.0831 28.0054 82.294 29.3538C81.5049 30.7022 80.3654 31.8134 78.9956 32.5702C77.566 33.342 75.9603 33.732 74.3346 33.7021L74.3457 33.7206ZM74.3457 29.2963C75.0922 29.3163 75.8273 29.1106 76.4543 28.7064C77.0489 28.3124 77.5277 27.7678 77.8415 27.1284C78.1786 26.431 78.3471 25.6645 78.3335 24.8905C78.347 24.1248 78.1784 23.3667 77.8415 22.6784C77.5277 22.039 77.0489 21.4944 76.4543 21.1004C75.8273 20.6962 75.0922 20.4905 74.3457 20.5105C73.5881 20.4943 72.8423 20.6994 72.2001 21.1004C71.6075 21.4957 71.1303 22.0401 70.8166 22.6784C70.4785 23.3664 70.3086 24.1245 70.3209 24.8905C70.3084 25.6648 70.4782 26.4313 70.8166 27.1284C71.1303 27.7667 71.6075 28.3111 72.2001 28.7064C72.8427 29.0937 73.5841 29.2871 74.3346 29.2631L74.3457 29.2963ZM86.3164 33.3519V17.1296C86.2914 15.9085 86.605 14.7041 87.2228 13.6492C87.8442 12.6348 88.7184 11.7978 89.7604 11.2196C90.8582 10.5993 92.1017 10.2812 93.3635 10.2979H101.972V14.8991H94.0552C93.7605 14.8958 93.4682 14.9523 93.196 15.0652C92.9238 15.178 92.6775 15.3447 92.472 15.5553C92.0584 15.9891 91.8337 16.5683 91.8468 17.1665V20.4847H100.851V25.0453H91.8468V32.2016C91.8468 32.4949 91.7299 32.7762 91.5218 32.9837C91.3136 33.1911 91.0314 33.3076 90.737 33.3076L86.3164 33.3519ZM122.199 33.3519V30.1406C122.199 29.8473 122.082 29.5659 121.874 29.3585C121.666 29.1511 121.384 29.0345 121.089 29.0345H118.5C118.374 29.0388 118.248 29.0168 118.13 28.9702C118.013 28.9235 117.907 28.853 117.818 28.7633C117.729 28.6736 117.66 28.5665 117.615 28.4488C117.57 28.3311 117.55 28.2054 117.557 28.0796V20.6211H122.206V16.4439H117.557V10.2979H112.415V16.4439H109.644V20.6211H112.415V28.3635C112.415 29.8751 112.854 31.0808 113.731 31.9804C114.609 32.8799 115.83 33.3187 117.394 33.2966L122.199 33.3519ZM108.271 32.2458V16.3886H103.94V33.3076H107.151C107.445 33.3076 107.727 33.1911 107.935 32.9837C108.143 32.7762 108.26 32.4949 108.26 32.2016L108.271 32.2458ZM106.906 10.2979C107.104 10.2964 107.299 10.339 107.477 10.4226C107.656 10.5062 107.814 10.6286 107.938 10.7808C108.144 11.0228 108.256 11.3302 108.253 11.6473V15.065H107.395C106.926 15.0781 106.46 14.9973 106.024 14.8276C105.587 14.6579 105.189 14.4026 104.853 14.0769C104.528 13.742 104.274 13.3457 104.105 12.9113C103.936 12.477 103.856 12.0134 103.869 11.5477V10.2979H106.906Z" fill="white"/>
<path d="M125.714 32.799C126.796 33.8771 128.551 33.8768 129.633 32.7982C130.716 31.7196 130.716 29.9713 129.634 28.8931C128.552 27.8149 126.797 27.8152 125.714 28.8938C124.632 29.9724 124.631 31.7208 125.714 32.799Z" fill="#28E7C5"/>
</svg>
