<svg width="32" height="32" viewBox="0 0 32 32" fill="none" xmlns="http://www.w3.org/2000/svg">
<g filter="url(#filter0_b_8_178)">
<path d="M6 14C6 13.4477 6.44772 13 7 13H25C25.5523 13 26 13.4477 26 14C26 14.5523 25.5523 15 25 15H7C6.44772 15 6 14.5523 6 14Z" fill="#28E7C5"/>
<path d="M6 18C6 17.4477 6.44772 17 7 17H25C25.5523 17 26 17.4477 26 18C26 18.5523 25.5523 19 25 19H7C6.44772 19 6 18.5523 6 18Z" fill="#28E7C5"/>
</g>
<defs>
<filter id="filter0_b_8_178" x="-4" y="-4" width="40" height="40" filterUnits="userSpaceOnUse" color-interpolation-filters="sRGB">
<feFlood flood-opacity="0" result="BackgroundImageFix"/>
<feGaussianBlur in="BackgroundImageFix" stdDeviation="2"/>
<feComposite in2="SourceAlpha" operator="in" result="effect1_backgroundBlur_8_178"/>
<feBlend mode="normal" in="SourceGraphic" in2="effect1_backgroundBlur_8_178" result="shape"/>
</filter>
</defs>
</svg>
