<svg width="24" height="24" viewBox="0 0 24 24" fill="none" xmlns="http://www.w3.org/2000/svg">
<path d="M13.5078 19.044C13.5396 19.1682 13.5564 19.2984 13.5564 19.4328C13.5564 20.2986 12.8544 21.0006 11.9886 21.0006C11.1228 21.0006 10.4208 20.2986 10.4208 19.4328C10.4208 19.287 10.4406 19.1454 10.4784 19.011" stroke="#28E7C5" stroke-miterlimit="10" stroke-linecap="round" stroke-linejoin="round"/>
<path d="M5.92619 15.7878H18.18" stroke="#28E7C5" stroke-miterlimit="10" stroke-linecap="round" stroke-linejoin="round"/>
<path d="M10.8132 4.743V4.245C10.8132 3.5574 11.3706 3 12.0582 3C12.7458 3 13.3032 3.5574 13.3032 4.245V4.743" stroke="#28E7C5" stroke-miterlimit="10" stroke-linecap="round" stroke-linejoin="round"/>
<path d="M4.3992 18.9576C4.3992 18.9576 6.15179 17.6034 6.15179 10.7412C6.15179 7.35302 8.76539 4.90442 11.9886 4.90442C15.2118 4.90442 17.8254 7.51802 17.8254 10.7412V10.7838C17.8254 17.646 19.6008 18.957 19.6008 18.957H4.3992V18.9576Z" stroke="#28E7C5" stroke-miterlimit="10" stroke-linecap="round" stroke-linejoin="round"/>
</svg>
