<svg width="32" height="32" viewBox="0 0 32 32" fill="none" xmlns="http://www.w3.org/2000/svg">
<rect width="32" height="32" rx="10" fill="#28E7C5" fill-opacity="0.1"/>
<path d="M17.5078 23.044C17.5396 23.1682 17.5564 23.2984 17.5564 23.4328C17.5564 24.2986 16.8544 25.0006 15.9886 25.0006C15.1228 25.0006 14.4208 24.2986 14.4208 23.4328C14.4208 23.287 14.4406 23.1454 14.4784 23.011" stroke="#0B1426" stroke-miterlimit="10" stroke-linecap="round" stroke-linejoin="round"/>
<path d="M9.92621 19.7878H22.18" stroke="#0B1426" stroke-miterlimit="10" stroke-linecap="round" stroke-linejoin="round"/>
<path d="M14.8132 8.743V8.245C14.8132 7.5574 15.3706 7 16.0582 7C16.7458 7 17.3032 7.5574 17.3032 8.245V8.743" stroke="#0B1426" stroke-miterlimit="10" stroke-linecap="round" stroke-linejoin="round"/>
<path d="M8.39923 22.9576C8.39923 22.9576 10.1518 21.6034 10.1518 14.7412C10.1518 11.353 12.7654 8.90442 15.9886 8.90442C19.2118 8.90442 21.8254 11.518 21.8254 14.7412V14.7838C21.8254 21.646 23.6008 22.957 23.6008 22.957H8.39923V22.9576Z" stroke="#0B1426" stroke-miterlimit="10" stroke-linecap="round" stroke-linejoin="round"/>
</svg>
