<svg width="32" height="32" viewBox="0 0 32 32" fill="none" xmlns="http://www.w3.org/2000/svg">
<rect width="32" height="32" rx="10" fill="white"/>
<path d="M21.247 20.448L16.9879 24.718C18.1155 23.5875 18.7499 22.0548 18.7521 20.4561C18.7542 18.8574 18.1238 17.323 16.9992 16.1895L12.7571 11.9367C11.9789 11.1433 11.4345 10.1498 11.184 9.06573C10.9334 7.98171 10.9865 6.84937 11.3374 5.79371L11.7761 4.4743C11.8301 4.31144 11.9247 4.16512 12.051 4.04926C12.1773 3.93339 12.3311 3.85183 12.4977 3.81232C12.6643 3.77282 12.8382 3.77668 13.0029 3.82353C13.1675 3.87039 13.3175 3.9587 13.4386 4.08005L21.247 11.9082C22.3766 13.0407 23.0112 14.5766 23.0112 16.1781C23.0112 17.7797 22.3766 19.3156 21.247 20.448Z" fill="#6942E2"/>
<path d="M16.9879 24.7179L13.4386 28.2762C13.3176 28.3972 13.1678 28.4853 13.0034 28.5321C12.8389 28.5788 12.6653 28.5827 12.499 28.5434C12.3326 28.504 12.1791 28.4227 12.0528 28.3073C11.9265 28.1918 11.8318 28.0459 11.7775 27.8834L11.3388 26.564C10.987 25.5066 10.9339 24.3723 11.1855 23.2865C11.437 22.2008 11.9835 21.206 12.7642 20.4124L16.9992 16.1895C18.1238 17.323 18.7542 18.8573 18.752 20.4561C18.7499 22.0548 18.1155 23.5875 16.9879 24.7179Z" fill="#28E7C5"/>
</svg>
