<svg width="24" height="24" viewBox="0 0 24 24" fill="none" xmlns="http://www.w3.org/2000/svg">
<path d="M9.60722 17.0532C9.02522 17.6352 6.55322 17.9988 6.55322 17.9988C6.55322 17.9988 6.91682 15.5274 7.49882 14.9448C8.08082 14.3628 9.02462 14.3628 9.60662 14.9448C10.1892 15.5274 10.1892 16.4712 9.60722 17.0532Z" stroke="#28E7C5" stroke-miterlimit="10" stroke-linecap="round" stroke-linejoin="round"/>
<path d="M4.6638 17.0664L3 18.7302" stroke="#28E7C5" stroke-miterlimit="10" stroke-linecap="round" stroke-linejoin="round"/>
<path d="M8.15034 19.1862L6.92334 20.4126" stroke="#28E7C5" stroke-miterlimit="10" stroke-linecap="round" stroke-linejoin="round"/>
<path d="M4.65779 19.8942L3.43079 21.1212" stroke="#28E7C5" stroke-miterlimit="10" stroke-linecap="round" stroke-linejoin="round"/>
<path d="M11.2044 8.5218L8.85896 8.112L6.42236 10.788L8.76236 11.2338L11.2044 8.5218Z" stroke="#28E7C5" stroke-miterlimit="10" stroke-linecap="round" stroke-linejoin="round"/>
<path d="M15.9996 13.3164L16.4088 15.6624L13.7328 18.099L13.287 15.759L15.9996 13.3164Z" stroke="#28E7C5" stroke-miterlimit="10" stroke-linecap="round" stroke-linejoin="round"/>
<path d="M11.9336 15.4027L9.13055 12.5996L8.19629 13.5338L10.9994 16.3369L11.9336 15.4027Z" stroke="#28E7C5" stroke-miterlimit="10" stroke-linecap="round" stroke-linejoin="round"/>
<path d="M20.6844 3.84901C20.8578 4.02241 20.9652 4.25221 20.9832 4.49701C21.057 5.49661 20.9922 8.2272 18.5598 10.8132C16.2102 13.311 12.7632 16.233 12.7632 16.233L8.30042 11.7702C8.30042 11.7702 11.2224 8.3232 13.7202 5.97361C16.3062 3.54061 19.0374 3.47641 20.0364 3.55021C20.2812 3.56821 20.511 3.67501 20.6844 3.84901Z" stroke="#28E7C5" stroke-miterlimit="10" stroke-linecap="round" stroke-linejoin="round"/>
<path d="M13.584 10.9008L10.1946 14.3388" stroke="#28E7C5" stroke-miterlimit="10" stroke-linecap="round" stroke-linejoin="round"/>
<path d="M17.3682 8.61543C18.1691 8.61543 18.8184 7.96617 18.8184 7.16523C18.8184 6.36429 18.1691 5.71503 17.3682 5.71503C16.5672 5.71503 15.918 6.36429 15.918 7.16523C15.918 7.96617 16.5672 8.61543 17.3682 8.61543Z" stroke="#28E7C5" stroke-miterlimit="10" stroke-linecap="round" stroke-linejoin="round"/>
</svg>
