<svg width="24" height="24" viewBox="0 0 24 24" fill="none" xmlns="http://www.w3.org/2000/svg">
<path d="M12.0006 16.2228C9.6678 16.2228 7.7766 14.3322 7.7766 12C7.7766 9.6672 9.6678 7.776 12.0006 7.776C14.3334 7.776 16.2234 9.6672 16.2234 12C16.2234 14.3328 14.3328 16.2228 12.0006 16.2228Z" stroke="white" stroke-miterlimit="10" stroke-linecap="round" stroke-linejoin="round"/>
<path d="M20.493 10.0644H19.1766C18.9624 10.0644 18.7698 9.9294 18.7002 9.7272C18.5988 9.4362 18.4794 9.1536 18.3432 8.8812C18.2454 8.6868 18.2856 8.4522 18.4392 8.2992L19.3746 7.3638C19.5726 7.1658 19.5726 6.8448 19.3746 6.6468L17.3532 4.626C17.1552 4.428 16.8348 4.428 16.6362 4.626L15.684 5.5782C15.5322 5.73 15.2994 5.7708 15.1062 5.676C14.8392 5.5458 14.562 5.4312 14.277 5.334C14.0718 5.265 13.935 5.0712 13.935 4.8558V3.507C13.935 3.2274 13.7088 3 13.428 3H10.5708C10.2906 3 10.0638 3.2274 10.0638 3.507V4.8564C10.0638 5.0718 9.927 5.2656 9.7218 5.3346C9.4368 5.4312 9.1602 5.5458 8.8926 5.6766C8.6994 5.7714 8.4666 5.7306 8.3148 5.5788L7.3638 4.626C7.1658 4.428 6.8448 4.428 6.6468 4.626L4.626 6.6462C4.428 6.8442 4.428 7.1652 4.626 7.3632L5.5614 8.2986C5.715 8.4522 5.7546 8.6862 5.6574 8.8806C5.5218 9.153 5.4018 9.4356 5.3016 9.7266C5.2308 9.9288 5.0382 10.0638 4.824 10.0638H3.507C3.2268 10.0638 3 10.2912 3 10.5708V13.4286C3 13.7082 3.2262 13.9356 3.507 13.9356H4.7886C5.0076 13.9356 5.2014 14.076 5.2698 14.2836C5.3694 14.583 5.4882 14.8728 5.6238 15.1524C5.7186 15.3474 5.6808 15.5808 5.5278 15.7338L4.6254 16.6362C4.4274 16.8342 4.4274 17.1546 4.6254 17.3526L6.6462 19.3734C6.8442 19.5714 7.1652 19.5714 7.3632 19.3734L8.2482 18.4884C8.4024 18.3342 8.6388 18.2964 8.8338 18.3942C9.1188 18.5364 9.414 18.6606 9.7188 18.7632C9.9246 18.8334 10.0638 19.026 10.0638 19.2432V20.4912C10.0638 20.7714 10.29 20.9988 10.5708 20.9988H13.428C13.7082 20.9988 13.935 20.7714 13.935 20.4912V19.2432C13.935 19.026 14.0742 18.8334 14.28 18.7632C14.5842 18.66 14.88 18.5358 15.165 18.3942C15.36 18.2964 15.5964 18.3336 15.7506 18.4884L16.6356 19.3734C16.8342 19.5714 17.1546 19.5714 17.3526 19.3734L19.3734 17.3526C19.5714 17.1546 19.5714 16.8342 19.3734 16.6362L18.471 15.7338C18.3186 15.5814 18.2802 15.348 18.375 15.1524C18.5106 14.8728 18.63 14.5824 18.729 14.2836C18.7974 14.076 18.9906 13.9356 19.2102 13.9356H20.4918C20.772 13.9356 20.9988 13.7082 20.9988 13.4286V10.5708C20.9994 10.2912 20.7732 10.0644 20.493 10.0644Z" stroke="white" stroke-miterlimit="10" stroke-linecap="round" stroke-linejoin="round"/>
</svg>
