<svg width="24" height="24" viewBox="0 0 24 24" fill="none" xmlns="http://www.w3.org/2000/svg">
  <path d="M14.9658 4.62059L10.7676 6.40019H5.89139L13.386 2.74859C13.6836 2.60339 14.043 2.72699 14.1882 3.02459L14.9658 4.62059Z" stroke="#000000" stroke-miterlimit="10" stroke-linecap="round" stroke-linejoin="round"/>
  <path d="M18.6312 6.40022H10.7676L16.881 3.80882C17.1864 3.67982 17.5386 3.82202 17.6676 4.12742L18.6312 6.40022Z" stroke="#000000" stroke-miterlimit="10" stroke-linecap="round" stroke-linejoin="round"/>
  <path d="M21 15.4758V19.0002C21 19.6626 20.463 20.2002 19.8 20.2002H4.2C3.537 20.2002 3 19.6626 3 19.0002V7.60021C3 6.93721 3.537 6.40021 4.2 6.40021H19.8C20.463 6.40021 21 6.93721 21 7.60021V11.1246" stroke="#000000" stroke-miterlimit="10" stroke-linecap="round" stroke-linejoin="round"/>
  <path d="M21.1854 15.4758H16.4766C15.2748 15.4758 14.301 14.502 14.301 13.3002C14.301 12.0984 15.2748 11.1246 16.4766 11.1246H21.1854C21.6348 11.1246 21.999 11.4888 21.999 11.9382V14.6616C21.999 15.111 21.6348 15.4758 21.1854 15.4758Z" stroke="#000000" stroke-miterlimit="10" stroke-linecap="round" stroke-linejoin="round"/>
  <path d="M16.4718 14.2434C16.9927 14.2434 17.415 13.8211 17.415 13.3002C17.415 12.7793 16.9927 12.357 16.4718 12.357C15.9509 12.357 15.5286 12.7793 15.5286 13.3002C15.5286 13.8211 15.9509 14.2434 16.4718 14.2434Z" stroke="#000000" stroke-miterlimit="10" stroke-linecap="round" stroke-linejoin="round"/>
</svg>
